<svg xmlns="http://www.w3.org/2000/svg" viewBox="0 0 114 163">
  <path d="m41.4 1.5c-4.2 1.7-7 5.9-7 10.5 0 5.3 2.6 9.3 7.8 11.8l3.6 1.8-8.5 24.6c-4.6 13.5-8.7 24.8-9 25.3-0.3 0.5-2.9 0.9-5.8 0.9-7.6 0-13.8 2.5-17.9 7.1-4.3 4.7-5.2 7.9-3.7 12.8 1.7 5.9 4.8 7.9 18.6 12.2 7 2.2 12.9 4.1 13.1 4.2 0.1 0.2-1.8 10.2-4.2 22.3-5.3 26-5.4 27.4-2.1 27.4 3.2 0 9.8-9.8 19.5-28.9 4-7.8 7.7-14.1 8.4-14.1 0.7 0 6.4 1.6 12.7 3.5 6.3 1.9 12.8 3.5 14.3 3.5 4.1 0 9.1-2.4 11.5-5.5 5.1-6.5 0.9-19.2-8.7-26l-4.9-3.5 4.3-14.3c2.3-7.8 5.7-19.1 7.5-25.2l3.3-11.1 5.7 0.1c3.9 0.1 6.5-0.5 8.4-1.7 3.6-2.4 5.9-7.8 5-12.2-1.2-6.6-3.9-7.9-35-17.6-28.2-8.7-32.8-9.6-36.9-7.9z"/>
</svg>
