<?xml version="1.0" standalone="no"?>
<!DOCTYPE svg PUBLIC "-//W3C//DTD SVG 20010904//EN"
 "http://www.w3.org/TR/2001/REC-SVG-20010904/DTD/svg10.dtd">
<svg version="1.0" xmlns="http://www.w3.org/2000/svg"
 width="764.988530pt" height="773.377112pt" viewBox="0 0 764.988530 773.377112"
 preserveAspectRatio="xMidYMid meet">
<metadata>
Created by potrace 1.12, written by Peter Selinger 2001-2015
</metadata>
<g transform="translate(-245.000000,1013.764477) scale(0.100000,-0.100000)"
fill="#000000" stroke="none">
<path d="M6055 10133 c-33 -2 -123 -10 -200 -19 -1403 -155 -2595 -1116 -3056
-2462 -111 -323 -116 -455 -27 -624 171 -323 650 -385 917 -119 73 72 124 159
161 276 77 244 251 563 439 805 89 115 283 313 404 413 200 166 443 310 684
406 640 255 1341 222 1978 -94 271 -134 494 -294 710 -511 103 -103 283 -314
293 -344 2 -6 -63 -10 -170 -10 -205 0 -268 -10 -364 -55 -84 -40 -177 -133
-218 -217 -134 -273 2 -600 279 -672 85 -23 1673 -24 1778 -1 197 42 370 208
423 409 11 41 14 218 14 922 0 768 -2 877 -16 925 -39 132 -119 231 -234 289
-205 103 -461 38 -608 -155 -73 -97 -99 -185 -107 -367 l-7 -136 -161 162
c-298 298 -578 510 -940 712 -600 335 -1308 502 -1972 467z"/>
<path d="M9140 5764 c-200 -52 -336 -181 -409 -387 -152 -432 -378 -787 -697
-1097 -134 -130 -218 -199 -349 -287 -329 -219 -663 -351 -1035 -410 -160 -25
-537 -25 -698 0 -369 59 -729 199 -1032 402 -174 117 -275 199 -425 350 -109
110 -292 324 -303 355 -2 4 102 10 231 12 l234 3 85 42 c180 90 291 267 291
468 1 230 -148 425 -358 465 -43 8 -303 10 -915 8 -842 -3 -856 -3 -910 -24
-204 -78 -336 -218 -385 -409 -13 -51 -15 -186 -15 -946 0 -871 0 -888 21
-955 11 -38 34 -90 50 -115 37 -58 123 -141 175 -167 149 -76 348 -69 483 17
112 72 207 205 231 325 5 28 12 113 16 190 l6 138 132 -134 c649 -664 1433
-1067 2306 -1185 193 -26 688 -26 880 0 647 87 1231 326 1738 709 592 448
1048 1073 1276 1751 67 199 88 291 87 382 -1 137 -48 244 -155 351 -77 77
-157 122 -261 149 -74 19 -222 18 -295 -1z"/>
</g>
</svg>
