<svg xmlns="http://www.w3.org/2000/svg" viewBox="0 0 2098 2079"><g transform="translate(-611 2339) scale(.1 -.1)"><path d="M15250 23300c-450-180-670-560-750-1300-50-460-140-780-260-920-210-220-1370-780-1630-780-90 0-490 230-890 500-1100 750-1320 690-2590-630-1140-1190-1170-1400-310-2530 220-290 380-620 380-780 0-370-540-1520-760-1640-110-50-460-130-790-170-1210-140-1470-480-1530-1980-70-1640 330-2270 1440-2270 720 0 1100-280 1410-1050 350-870 330-1030-200-1690-260-310-500-680-530-810-100-420 160-860 1030-1720 1120-1120 1470-1180 2480-430 700 530 810 540 1590 210 920-390 1060-550 1160-1330 150-1240 360-1380 2150-1380 950 0 1330 40 1560 160 350 180 590 670 590 1190 0 730 190 970 1070 1330 490 200 880 300 990 260 110-40 420-250 710-460 600-460 1070-570 1490-350 170 90 670 520 1120 970 1060 1060 1150 1470 490 2260-330 400-470 680-470 960 0 370 520 1580 730 1700 110 60 490 140 850 180 540 70 710 140 960 390 310 310 310 320 340 1550 50 1820-150 2160-1370 2290-730 90-920 240-1240 1010-390 960-370 1060 290 1930 600 790 440 1230-930 2550-1040 1000-1270 1000-2620 30-430-320-550-310-1340 50-860 410-970 550-1080 1410-150 1180-480 1390-2210 1380-620 0-1220-40-1330-90zm2800-5150c1720-450 3120-1760 3730-3490 340-970 360-2400 30-3360-580-1670-1750-2870-3370-3460-3150-1150-6670 960-7150 4290-390 2680 1330 5290 3970 6020 670 180 2070 180 2790 0z"/><path d="M14490 15270c-410-280-590-600-590-1090v-370l1080-30c590-20 1780-10 2640 20l1570 50 310 300c310 290 560 950 460 1210-40 110-510 140-2590 140-2480 0-2550-10-2880-230zM14570 13200c-530-160-790-530-900-1250l-70-400 1730 30c1840 50 2130 110 2430 570 90 140 190 450 220 700l50 450-1590-10c-880 0-1720-50-1870-90zM13780 10900c-260-270-300-360-250-680 80-450 380-720 810-720 350 10 570 150 740 470 190 350 140 630-170 940-390 380-740 380-1130-10z"/></g></svg>
