<svg version="1.2" xmlns="http://www.w3.org/2000/svg" viewBox="0 0 197 199" width="197" height="199"><style></style><path  d="m25.1 2.1c-9.7 3.1-19.4 13.3-22.5 23.8-2.2 7.3-2.3 139.8 0 147 3 10 11 18.6 21.5 23.1 4.2 1.7 7.8 1.9 46.9 2.2 23.3 0.2 42.6 0 43-0.5 0.5-0.4-0.3-4.9-1.5-9.9-1.3-5-2.9-12.8-3.6-17.2l-1.2-8.1h-8.7c-17.4 0-36.4-4.9-50-13-10.4-6.2-13.1-10.8-8.9-15 3-3 6.3-2.5 13.7 2 12.1 7.3 24.6 10.8 41.8 11.7l10.1 0.6 0.6-3.4c0.4-1.9 0.7-9 0.8-15.9l0.1-12.5-12.1-0.5c-18.3-0.7-18.3-0.8-12.5-33.6 3.6-20.3 9.7-46.2 15.9-68.1 1.9-6.8 3.5-12.8 3.5-13.3 0-0.5-14.4-0.9-36.1-0.8-28.3 0-37.3 0.4-40.8 1.4zm32 55.4c2.9 2.9 2.9 14.7 0 17.8-2.5 2.6-6.6 2.9-9.2 0.5-2.5-2.2-2.6-15.7-0.1-18.5 2.1-2.4 6.8-2.3 9.3 0.2z"/><path  d="m113.6 8.3c-7.9 25.4-22.7 92.7-20.7 94.7 0.3 0.3 4.9 0.5 10.3 0.5 11.2 0 15.4 1.4 16.4 5.7 0.4 1.4 0.5 9.6 0.2 18.2-0.2 8.6-0.3 16.3-0.1 17.2 0.4 1.6 0.9 1.5 6.2-0.1 5.3-1.6 15.3-6.4 23.8-11.6 3.2-1.9 3.2-1.9 6 0.2 2 1.5 2.9 3.1 3.1 5.7 0.3 3.2-0.1 3.9-4 6.8-5.9 4.3-18.9 10.5-27.2 13l-6.8 2.1 0.6 5.7c0.7 6.4 4.9 25.1 6.5 29.4l1.1 2.8 19.8-0.4c17.6-0.4 20.3-0.7 25.6-2.8 7.9-3 14.8-9.6 18.9-17.9l3.2-6.5v-71.5-71.5l-3.8-7.7c-4.4-8.9-10.2-14.3-19.2-17.6-5.1-1.9-7.7-2.1-31.5-2.1h-25.9zm36.4 49.2c1.6 1.6 2 3.3 2 9.4 0 6.6-0.3 7.7-2.2 9-3.1 2.2-6.4 2-8.8-0.4-1.6-1.6-2-3.3-2-9 0-7.8 1.9-11 6.5-11 1.4 0 3.4 0.9 4.5 2z"/></svg>